# AST/ASF file generated using VICON BodyLanguage
# -----------------------------------------------
:version 1.10
:name VICON
:units
  mass 1.0
  length 0.45
  angle deg
:documentation
   .ast/.asf automatically generated from VICON data using
   VICON BodyBuilder and BodyLanguage model FoxedUp or BRILLIANT.MOD
:root
   order TX TY TZ RX RY RZ
   axis XYZ
   position 0 0 0  
   orientation 0 0 0 
:bonedata
  begin
     id 1 
     name lhipjoint
     direction 0.535335 -0.74333 0.401095 
     length 2.04549 
     axis 0 0 0  XYZ
  end
  begin
     id 2 
     name lfemur
     direction 0.34202 -0.939693 0  
     length 6.95643  
     axis 0 0 20  XYZ
    dof rx ry rz
    limits (-160.0 20.0)
           (-70.0 70.0)
           (-60.0 70.0)
  end
  begin
     id 3 
     name ltibia
     direction 0.34192 -0.939729 0   
     length 5.55969   
     axis 0 0 20   XYZ
    dof rx
    limits (-10.0 170.0)
  end
  begin
     id 4 
     name lfoot
     direction 0.216943 -0.596046 0.773088   
     length 2.27918   
     axis -90 7.62852e-016 20   XYZ
    dof rx rz
    limits (-45.0 90.0)
           (-70.0 20.0)
  end
  begin
     id 5 
     name ltoes
     direction 1.53519e-011 -4.21748e-011 1   
     length 1.05562   
     axis -90 7.62852e-016 20   XYZ
    dof rx
    limits (-90.0 20.0)
  end
  begin
     id 6 
     name rhipjoint
     direction -0.576368 -0.719173 0.38806   
     length 2.1142  
     axis 0 0 0  XYZ 
  end
  begin
     id 7 
     name rfemur
     direction -0.34202 -0.939693 0   
     length 7.07928   
     axis 0 0 -20   XYZ
    dof rx ry rz
    limits (-160.0 20.0)
           (-70.0 70.0)
           (-70.0 60.0)
  end
  begin
     id 8 
     name rtibia
     direction -0.34202 -0.939693 0   
     length 5.79974   
     axis 0 0 -20   XYZ
    dof rx
    limits (-10.0 170.0)
 end
 begin
     id 9 
     name rfoot
     direction -0.189288 -0.520065 0.832888   
     length 2.42173  
     axis -90 -7.62852e-016 -20   XYZ
    dof rx rz
    limits (-45.0 90.0)
           (-20.0 70.0)
  end
  begin
     id 10 
     name rtoes
     direction -1.53574e-011 -4.21658e-011 1   
     length 1.14469   
     axis -90 -7.62852e-016 -20   XYZ
    dof rx
    limits (-90.0 20.0)
  end
  begin
     id 11 
     name lowerback
     direction -0.00135702 0.993803 0.111144   
     length 1.91308   
     axis 0 0 0   XYZ
    dof rx ry rz
    limits (-20.0 45.0)
           (-30.0 30.0)
           (-30.0 30.0)
  end
  begin
     id 12 
     name upperback
     direction -0.0056745 0.999813 0.0184631   
     length 1.9212   
     axis 0 0 0   XYZ
    dof rx ry rz
    limits (-20.0 45.0)
           (-30.0 30.0)
           (-30.0 30.0)
  end
  begin
     id 13 
     name thorax
     direction -0.00733434 0.999426 -0.0330788   
     length 1.94196   
     axis 0 0 0   XYZ
    dof rx ry rz
    limits (-20.0 45.0)
           (-30.0 30.0)
           (-30.0 30.0)
  end
  begin
     id 14 
     name lowerneck
     direction 0.0563074 0.996944 -0.0541571   
     length 2.34257   
     axis 0 0 0   XYZ
    dof rx ry rz
    limits (-20.0 45.0)
           (-30.0 30.0)
           (-30.0 30.0)
  end
  begin
     id 15 
     name upperneck
     direction -0.0544519 0.976166 -0.210085   
     length 2.32506   
     axis 0 0 0   XYZ
    dof rx ry rz
    limits (-20.0 45.0)
           (-30.0 30.0)
           (-30.0 30.0)
  end
  begin
     id 16
     name head
     direction -0.0226035 0.997615 -0.0652205  
     length 2.3648  
     axis 0 0 0   XYZ
    dof rx ry rz
    limits (-20.0 45.0)
           (-30.0 30.0)
           (-30.0 30.0)
  end
  begin
     id 17 
     name lclavicle
     direction 0.92109 0.381297 -0.0787716  
     length 4.0487  
     axis 0 0 0   XYZ
    dof ry rz
    limits (-20.0 10.0)
           (0.0 20.0)
  end
  begin
     id 18 
     name lhumerus
     direction 1 -4.48986e-011 3.56724e-027   
     length 4.94991   
     axis 180 -30 -90   XYZ
    dof rx ry rz
    limits (-60.0 90.0)
           (-90.0 90.0)
           (-90.0 90.0)
  end
  begin
     id 19
     name lradius
     direction 1 -4.48981e-011 8.62147e-027   
     length 2.7606   
     axis 180 -30 -90   XYZ
    dof rx
    limits (-10.0 170.0)
  end
  begin
     id 20
     name lwrist
     direction 1 -4.48989e-011 1.59799e-026   
     length 1.3803   
     axis -1.17785e-014 90 90   XYZ
    dof ry
    limits (-180.0 0.0)
 end
  begin
     id 21 
     name lhand
     direction 1 -4.48896e-011 3.19599e-026   
     length 0.843936   
     axis -2.03931e-014 90 90   XYZ
    dof rx rz
    limits (-90.0 90.0)
           (-45.0 45.0)
  end
  begin
     id 22 
     name lfingers
     direction 1 -4.48887e-011 6.39197e-026   
     length 0.680403   
     axis -4.07862e-014 90 90   XYZ
    dof rx
    limits (0.0 90.0)
  end
  begin
     id 23
     name lthumb
     direction 0.707107 -6.348e-011 0.707107   
     length 0.976926   
     axis -90 45 2.85299e-015   XYZ
    dof rx rz
    limits (-45.0 45.0)
           (-45.0 45.0)
  end
  begin
     id 24 
     name rclavicle
     direction -0.951104 0.307692 -0.026953   
     length 4.21801  
     axis 0 0 0   XYZ 
    dof ry rz
    limits (-10.0 20.0)
           (-20.0 0.0)
  end
  begin
     id 25 
     name rhumerus
     direction -1 -4.4896e-011 -1.8171e-018  
     length 4.32982   
     axis 180 30 90   XYZ
    dof rx ry rz
    limits (-90.0 60.0)
           (-90.0 90.0)
           (-90.0 90.0)
  end
  begin
     id 26 
     name rradius
     direction -1 -4.48959e-011 8.25165e-027   
     length 3.20057   
     axis 180 30 90   XYZ
    dof rx
    limits (-10.0 170.0)
  end
  begin
     id 27 
     name rwrist
     direction -1 -4.48997e-011 1.59799e-026   
     length 1.60029   
     axis -1.17785e-014 -90 -90   XYZ
    dof ry
    limits (-180.0 0.0)
  end
  begin
     id 28
     name rhand
     direction -1 -4.49023e-011 3.19599e-026   
     length 0.960433   
     axis -2.03931e-014 -90 -90   XYZ
    dof rx rz
    limits (-90.0 90.0)
           (-45.0 45.0)
  end
  begin
     id 29
     name rfingers
     direction -1 -4.48802e-011 6.39197e-026   
     length 0.774326   
     axis -4.07862e-014 -90 -90   XYZ
    dof rx
    limits (0.0 90.0)
  end
  begin
     id 30
     name rthumb
     direction -0.707107 -6.34876e-011 0.707107   
     length 1.11178   
     axis -90 -45 -2.85299e-015   XYZ
    dof rx rz
    limits (-45.0 45.0)
           (-45.0 45.0)
  end
:hierarchy
  begin
    root lhipjoint rhipjoint lowerback
    lhipjoint lfemur
    lfemur ltibia
    ltibia lfoot
    lfoot ltoes
    rhipjoint rfemur
    rfemur rtibia
    rtibia rfoot
    rfoot rtoes
    lowerback upperback
    upperback thorax
    thorax lowerneck lclavicle rclavicle
    lowerneck upperneck
    upperneck head
    lclavicle lhumerus
    lhumerus lradius
    lradius lwrist
    lwrist lhand lthumb
    lhand lfingers
    rclavicle rhumerus
    rhumerus rradius
    rradius rwrist
    rwrist rhand rthumb
    rhand rfingers
end

#!OML:ASF C:\KaitlinTest1\Natural Motions\Nikki\Session 2\Nikki.ASF
:FULLY-SPECIFIED
:DEGREES
512
root -12.1771 16.5078 4.08956 53.2602 91.4115 46.9557
lowerback -9.81566 -1.83684 0.550238
upperback -4.68407 -2.31004 -0.515005
thorax 0.593729 -1.09681 -1.07215
lowerneck -6.61207 -11.4293 -10.0097
upperneck 5.77812 41.3081 5.39867
head 164.991 62.7478 -39.6334
rclavicle 1.64991e-014 -1.19271e-015
rhumerus -38.8642 -21.5751 -84.0612
rradius 16.3471
rwrist 21.9876
rhand -35.892 1.47384
rfingers 7.12502
rthumb -9.00559 -28.3139
lclavicle 1.64991e-014 -1.19271e-015
lhumerus -38.6477 18.0386 83.5011
lradius 17.8767
lwrist -32.2474
lhand -34.0734 3.25113
lfingers 7.12502
lthumb -7.2504 33.1069
rfemur -6.30642 -20.3666 20.773
rtibia 16.5627
rfoot -13.0833 9.15693
rtoes -1.35174e-014
lfemur -9.86218 16.1116 -17.0996
ltibia 20.201
lfoot -8.59971 -18.8912
ltoes -3.33958e-014
513
root -12.1779 16.5085 4.09051 52.6602 91.4316 46.3429
lowerback -9.83063 -1.8365 0.557701
upperback -4.71257 -2.30871 -0.514943
thorax 0.572067 -1.0958 -1.07606
lowerneck -6.5628 -11.4458 -9.99316
upperneck 5.80652 41.3267 5.41404
head 164.951 62.7171 -39.6557
rclavicle 9.74045e-015 6.75868e-015
rhumerus -38.9829 -21.8112 -83.8554
rradius 16.2824
rwrist 22.2458
rhand -35.8755 1.51809
rfingers 7.12502
rthumb -8.98968 -28.2704
lclavicle 9.74045e-015 6.75868e-015
lhumerus -38.791 18.1738 83.3792
lradius 17.8155
lwrist -32.378
lhand -33.7961 3.40841
lfingers 7.12502
lthumb -6.98279 33.2732
rfemur -6.33215 -20.4383 20.7871
rtibia 16.5807
rfoot -13.1238 9.1975
rtoes 8.74653e-015
lfemur -9.88971 16.1359 -17.0954
ltibia 20.1915
lfoot -8.57917 -18.9358
ltoes -1.43125e-014
514
root -12.1786 16.508 4.09078 51.5151 91.4552 45.2102
lowerback -9.85689 -1.84223 0.571109
upperback -4.69673 -2.31781 -0.51897
thorax 0.60189 -1.10053 -1.08985
lowerneck -6.59588 -11.4569 -9.97271
upperneck 5.80916 41.3532 5.41974
head 164.907 62.7223 -39.7075
rclavicle -1.84373e-014 -7.15625e-015
rhumerus -39.0336 -22.086 -83.6509
rradius 16.1839
rwrist 22.5139
rhand -35.8519 1.44495
rfingers 7.12502
rthumb -8.96689 -28.3445
lclavicle -1.84373e-014 -7.15625e-015
lhumerus -38.9991 18.6963 83.0209
lradius 17.8827
lwrist -33.0792
lhand -33.4498 3.53727
lfingers 7.12502
lthumb -6.64849 33.4129
rfemur -6.32405 -20.4969 20.774
rtibia 16.5849
rfoot -13.1248 9.23967
rtoes 3.18055e-015
lfemur -9.8875 16.1222 -17.0966
ltibia 20.1963
lfoot -8.56191 -18.9715
ltoes 2.38542e-014
515
root -12.1817 16.5089 4.09159 50.2523 91.4584 43.9154
lowerback -9.84481 -1.85204 0.540018
upperback -4.73429 -2.32648 -0.514227
thorax 0.557653 -1.104 -1.06723
lowerneck -6.55438 -11.4864 -9.95724
upperneck 5.79235 41.2263 5.38503
head 164.706 62.8321 -39.8201
rclavicle 2.78299e-015 3.97569e-015
rhumerus -39.126 -22.2271 -83.5038
rradius 16.146
rwrist 22.5605
rhand -35.8576 1.32995
rfingers 7.12502
rthumb -8.97238 -28.4593
lclavicle 2.78299e-015 3.97569e-015
lhumerus -39.0958 18.9424 82.836
lradius 17.7223
lwrist -33.1633
lhand -33.1638 3.4454
lfingers 7.12502
lthumb -6.37239 33.3295
rfemur -6.37616 -20.5396 20.7753
rtibia 16.589
rfoot -13.1114 9.25657
rtoes 9.54166e-015
lfemur -9.9376 16.1178 -17.1371
ltibia 20.195
lfoot -8.57467 -18.9876
ltoes -2.38542e-014
516
root -12.1837 16.5083 4.09186 49.6025 91.4826 43.249
lowerback -9.88303 -1.85215 0.559782
upperback -4.73113 -2.32789 -0.523778
thorax 0.580517 -1.10481 -1.08966
lowerneck -6.54279 -11.4888 -9.94521
upperneck 5.77358 41.1556 5.38255
head 164.715 62.916 -39.8145
rclavicle 7.7526e-015 5.1684e-015
rhumerus -39.1908 -22.6846 -83.2046
rradius 16.0108
rwrist 23.0652
rhand -35.8085 1.24652
rfingers 7.12502
rthumb -8.92503 -28.5447
lclavicle 7.7526e-015 5.1684e-015
lhumerus -39.1527 19.0368 82.7505
lradius 17.696
lwrist -33.1049
lhand -32.8365 3.62061
lfingers 7.12502
lthumb -6.05636 33.514
rfemur -6.39569 -20.5767 20.7888
rtibia 16.593
rfoot -13.1055 9.27139
rtoes 1.19271e-014
lfemur -9.97039 16.1164 -17.135
ltibia 20.1921
lfoot -8.56827 -19.0197
ltoes -1.90833e-014
517
root -12.1848 16.5093 4.09255 48.4635 91.505 42.0964
lowerback -9.9112 -1.85702 0.562755
upperback -4.7336 -2.33398 -0.531596
thorax 0.592727 -1.10769 -1.10092
lowerneck -6.54819 -11.4937 -9.93852
upperneck 5.78075 41.1815 5.39352
head 164.74 62.8913 -39.8057
rclavicle -1.59028e-014 -4.37326e-015
rhumerus -39.2975 -23.2056 -82.8203
rradius 15.8138
rwrist 23.7022
rhand -35.8928 1.55293
rfingers 7.12502
rthumb -9.00636 -28.2348
lclavicle -1.59028e-014 -4.37326e-015
lhumerus -39.5961 21.5827 81.0763
lradius 17.4277
lwrist -35.8056
lhand -32.4281 3.31167
lfingers 7.12502
lthumb -5.6621 33.216
rfemur -6.41941 -20.6149 20.7932
rtibia 16.5974
rfoot -13.1039 9.26531
rtoes 1.66979e-014
lfemur -9.99774 16.1218 -17.1468
ltibia 20.1897
lfoot -8.55958 -19.0648
ltoes 1.59028e-014
518
root -12.188 16.5101 4.09371 48.4187 91.5387 42.0407
lowerback -9.89595 -1.8549 0.590507
upperback -4.7442 -2.3333 -0.527704
thorax 0.572421 -1.10773 -1.11164
lowerneck -6.55288 -11.5275 -9.9097
upperneck 5.78802 41.1777 5.38877
head 164.628 62.8574 -39.8778
rclavicle -3.11098e-014 -4.77083e-015
rhumerus -39.3548 -23.3547 -82.7042
rradius 15.7641
rwrist 23.7068
rhand -35.9693 1.62
rfingers 7.12502
rthumb -9.08013 -28.1646
lclavicle -3.11098e-014 -4.77083e-015
lhumerus -39.6503 21.7179 80.95
lradius 17.3644
lwrist -35.6781
lhand -32.2326 3.37933
lfingers 7.12502
lthumb -5.47335 33.2886
rfemur -6.44016 -20.6087 20.8353
rtibia 16.5799
rfoot -13.0831 9.24054
rtoes 1.74931e-014
lfemur -10.0373 16.1377 -17.1243
ltibia 20.2003
lfoot -8.53974 -19.0873
ltoes -1.27222e-014
